<svg xmlns="http://www.w3.org/2000/svg" viewBox="0 0 18 36" width="18" height="36">
	<style>
		tspan { white-space:pre }
		.shp0 { fill: #e5e5e5 } 
	</style>
	<path id="facebook" class="shp0" d="M13.17 0.7C10.91 0.7 9.09 1.41 7.73 2.85C6.37 4.28 5.69 6.3 5.69 8.91L5.69 13.49L0.68 13.49L0.68 19.7L5.69 19.7L5.69 35.64L11.7 35.64L11.7 19.7L16.69 19.7L17.46 13.49L11.7 13.49L11.7 9.52C11.7 8.51 11.9 7.75 12.29 7.25C12.68 6.74 13.44 6.49 14.57 6.49L17.66 6.49L17.66 0.95C16.59 0.78 15.1 0.7 13.17 0.7L13.17 0.7Z" />
</svg>