<svg xmlns="http://www.w3.org/2000/svg" viewBox="0 0 33 34" width="33" height="34">
	<style>
		tspan { white-space:pre }
		.shp0 { fill: #e5e5e5 } 
	</style>
	<path id="instagram" class="shp0" d="M28.85 29.13C28.59 29.37 28.29 29.5 27.93 29.5L5.13 29.5C4.76 29.5 4.45 29.37 4.2 29.13C3.95 28.88 3.83 28.57 3.83 28.2L3.83 14.46L6.83 14.46C6.55 15.35 6.41 16.28 6.41 17.24C6.41 19.95 7.4 22.27 9.39 24.18C11.38 26.1 13.78 27.06 16.58 27.06C18.43 27.06 20.14 26.62 21.7 25.74C23.27 24.87 24.51 23.68 25.42 22.17C26.33 20.66 26.78 19.02 26.78 17.24C26.78 16.28 26.64 15.35 26.35 14.46L29.23 14.46L29.23 28.2C29.23 28.57 29.11 28.88 28.85 29.13ZM16.58 23.24C14.78 23.24 13.23 22.62 11.94 21.39C10.66 20.15 10.01 18.65 10.01 16.9C10.01 15.15 10.66 13.65 11.94 12.42C13.23 11.18 14.78 10.56 16.58 10.56C18.4 10.56 19.96 11.18 21.24 12.42C22.53 13.65 23.18 15.15 23.18 16.9C23.18 18.65 22.53 20.15 21.24 21.39C19.96 22.62 18.4 23.24 16.58 23.24L16.58 23.24ZM28.81 10.31C28.52 10.59 28.17 10.73 27.76 10.73L24.05 10.73C23.64 10.73 23.29 10.59 23 10.31C22.72 10.02 22.58 9.68 22.58 9.27L22.58 5.77C22.58 5.37 22.72 5.03 23 4.74C23.29 4.45 23.64 4.31 24.05 4.31L27.76 4.31C28.17 4.31 28.52 4.45 28.81 4.74C29.09 5.03 29.23 5.37 29.23 5.77L29.23 9.27C29.23 9.68 29.09 10.02 28.81 10.31ZM31.71 1.91C30.88 1.09 29.9 0.68 28.74 0.68L4.38 0.68C3.23 0.68 2.24 1.09 1.41 1.91C0.59 2.73 0.18 3.71 0.18 4.86L0.18 29.07C0.18 30.22 0.59 31.2 1.41 32.02C2.24 32.84 3.23 33.25 4.38 33.25L28.74 33.25C29.9 33.25 30.88 32.84 31.71 32.02C32.53 31.2 32.95 30.22 32.95 29.07L32.95 4.86C32.95 3.71 32.53 2.73 31.71 1.91Z" />
</svg>