<svg xmlns="http://www.w3.org/2000/svg" viewBox="0 0 47 36" width="47" height="36">
	<style>
		tspan { white-space:pre }
		.shp0 { fill: #e5e5e5 } 
	</style>
	<path id="mk-discordshape" class="shp0" d="M16.52 0.7C16.92 0.68 17.28 0.71 17.52 0.83C17.62 1.13 17.73 1.44 17.83 1.75C14.67 2.17 9.8 4.85 8.36 6.94C10.15 6.15 12.06 5.12 14.07 4.31C17.9 2.77 24.64 2.26 29.43 3.32C31.68 3.82 34.2 4.45 36.27 5.56C37.22 6.07 38.37 6.82 39.15 7.14C36.76 4.63 33.41 2.52 29.37 1.75C29.37 1.66 29.37 1.57 29.37 1.48C29.62 1.27 29.76 1 29.75 0.7C32.63 0.67 39.06 3.29 40.41 5.03C40.83 5.91 41.25 6.79 41.66 7.66C44.58 13.09 46.23 20.9 46.62 29.15C42.98 32.54 39.36 35.59 33.01 35.73C32.47 34.96 31.92 34.19 31.38 33.42C31.4 33.36 31.42 33.29 31.44 33.23C33.83 32.61 39.25 28.98 39.91 27.31C39.82 27.33 39.74 27.36 39.66 27.38C39.27 28.49 35.06 30.05 33.64 30.66C24.63 34.54 13.02 31.7 7.17 27.18C7.45 27.83 7.94 27.97 8.36 28.43C10.51 30.8 12.77 31.59 15.83 33.29C15.83 33.32 15.83 33.34 15.83 33.36C15.28 34.15 14.74 34.94 14.19 35.73C9.1 35.73 3.78 32.87 1.46 30.01C1.36 29.88 0.73 29.5 0.59 29.22C0.35 28.74 1.15 23.54 1.28 22.38C1.79 17.57 3.53 10.98 5.54 7.66C5.96 6.79 6.38 5.91 6.79 5.03C7.81 3.77 11.61 2.14 13.32 1.48C14.38 1.22 15.45 0.96 16.52 0.7ZM16.39 16.01C14.38 16.88 13.65 17.58 13.19 19.89C12.73 22.21 15.28 25.65 17.58 24.75C20.74 23.51 21.44 18.44 18.58 16.47C17.98 16.05 17.09 16.18 16.39 16.01ZM30.06 16.01C27.65 17.03 27.29 17.54 26.74 20.02C26.26 22.14 28.68 25.38 30.94 24.75C35.01 23.61 35.26 15.92 30.06 16.01Z" />
</svg>