<svg xmlns="http://www.w3.org/2000/svg" viewBox="0 0 50 50" width="50" height="50">
	<style>
		tspan { white-space:pre }
		.shp0 { fill: #09C }
		 #mkpad{opacity:0.7;}

	</style>
	<path id="mkpad" class="shp0" d="M20.54 27.71C20.39 27.87 20.21 27.94 19.98 27.94L15.31 27.94L15.31 32.86C15.31 33.1 15.23 33.3 15.09 33.45C14.94 33.61 14.76 33.68 14.53 33.68L11.41 33.68C11.19 33.68 11 33.61 10.85 33.45C10.71 33.3 10.64 33.1 10.64 32.86L10.64 27.94L5.96 27.94C5.74 27.94 5.55 27.87 5.4 27.71C5.26 27.56 5.18 27.36 5.18 27.12L5.18 23.84C5.18 23.6 5.26 23.41 5.4 23.25C5.55 23.1 5.74 23.02 5.96 23.02L10.64 23.02L10.64 18.1C10.64 17.86 10.71 17.66 10.85 17.51C11 17.36 11.19 17.28 11.41 17.28L14.53 17.28C14.76 17.28 14.94 17.36 15.09 17.51C15.23 17.66 15.31 17.86 15.31 18.1L15.31 23.02L19.98 23.02C20.21 23.02 20.39 23.1 20.54 23.25C20.69 23.41 20.76 23.6 20.76 23.84L20.76 27.12C20.76 27.36 20.69 27.56 20.54 27.71ZM31.66 32.04C30.8 32.04 30.07 31.72 29.46 31.08C28.85 30.44 28.55 29.67 28.55 28.76C28.55 27.86 28.85 27.08 29.46 26.44C30.07 25.8 30.8 25.48 31.66 25.48C32.52 25.48 33.26 25.8 33.86 26.44C34.47 27.08 34.78 27.86 34.78 28.76C34.78 29.67 34.47 30.44 33.86 31.08C33.26 31.72 32.52 32.04 31.66 32.04ZM37.89 25.48C37.03 25.48 36.3 25.16 35.69 24.52C35.08 23.88 34.78 23.11 34.78 22.2C34.78 21.29 35.08 20.52 35.69 19.88C36.3 19.24 37.03 18.92 37.89 18.92C38.75 18.92 39.49 19.24 40.09 19.88C40.7 20.52 41.01 21.29 41.01 22.2C41.01 23.11 40.7 23.88 40.09 24.52C39.49 25.16 38.75 25.48 37.89 25.48ZM34.78 12.36L12.97 12.36C9.53 12.36 6.6 13.64 4.16 16.2C1.73 18.77 0.51 21.86 0.51 25.48C0.51 29.1 1.73 32.2 4.16 34.76C6.6 37.32 9.53 38.61 12.97 38.61C16.09 38.61 18.83 37.51 21.2 35.32L26.55 35.32C28.92 37.51 31.66 38.61 34.78 38.61C38.22 38.61 41.15 37.32 43.59 34.76C46.02 32.2 47.24 29.1 47.24 25.48C47.24 21.86 46.02 18.77 43.59 16.2C41.15 13.64 38.22 12.36 34.78 12.36L34.78 12.36Z" />
</svg>