<svg xmlns="http://www.w3.org/2000/svg" viewBox="0 0 50 50" width="50" height="50">
	<style>
		tspan { white-space:pre }
		.shp0 { fill: #2db6cf } 
		#mksocial{opacity:0.7;}
		 
	</style>
	<path id="mksocial" class="shp0" d="M35.69 32.93C32.64 34.72 29.33 35.62 25.76 35.62C22.2 35.62 18.89 34.72 15.83 32.93C12.78 31.14 10.24 28.73 8.21 25.7C10.53 22.22 13.43 19.62 16.92 17.89C15.99 19.43 15.52 21.09 15.52 22.87C15.52 25.6 16.53 27.94 18.53 29.87C20.53 31.81 22.94 32.78 25.76 32.78C28.58 32.78 30.99 31.81 32.99 29.87C35 27.94 36 25.6 36 22.87C36 21.09 35.54 19.43 34.61 17.89C38.09 19.62 41 22.22 43.31 25.7C41.29 28.73 38.75 31.14 35.69 32.93ZM25.76 18.27C24.45 18.27 23.33 18.72 22.4 19.62C21.47 20.52 21.01 21.6 21.01 22.87C21.01 23.17 20.9 23.42 20.69 23.62C20.48 23.83 20.22 23.93 19.91 23.93C19.61 23.93 19.35 23.83 19.13 23.62C18.92 23.42 18.81 23.17 18.81 22.87C18.81 21.03 19.5 19.45 20.86 18.13C22.22 16.81 23.86 16.14 25.76 16.14C26.07 16.14 26.33 16.25 26.54 16.45C26.75 16.66 26.86 16.91 26.86 17.21C26.86 17.5 26.75 17.75 26.54 17.96C26.33 18.17 26.07 18.27 25.76 18.27L25.76 18.27ZM45.78 24.18C43.65 20.8 40.78 18.08 37.18 16.03C33.57 13.98 29.77 12.96 25.76 12.96C21.75 12.96 17.95 13.98 14.35 16.03C10.74 18.08 7.88 20.8 5.74 24.18C5.44 24.69 5.29 25.2 5.29 25.7C5.29 26.21 5.44 26.71 5.74 27.23C7.88 30.61 10.74 33.32 14.35 35.37C17.95 37.42 21.75 38.45 25.76 38.45C29.77 38.45 33.57 37.43 37.18 35.38C40.78 33.34 43.65 30.62 45.78 27.23C46.09 26.71 46.24 26.21 46.24 25.7C46.24 25.2 46.09 24.69 45.78 24.18L45.78 24.18Z" />
</svg>