<svg xmlns="http://www.w3.org/2000/svg" viewBox="0 0 50 50" width="50" height="50">
	<style>
		tspan { white-space:pre }
		.shp0 { fill: #09C} 
		#mkstats{opacity:0.7;}

	</style>
	<path id="mkstats" class="shp0" d="M28.52 35.22L43.71 35.22L43.71 37.97L28.52 37.97L28.52 35.22ZM19.41 24.21L43.71 24.21L43.71 26.96L19.41 26.96L19.41 24.21ZM34.6 13.2L43.71 13.2L43.71 15.95L34.6 15.95L34.6 13.2ZM46.3 32.87C46 32.6 45.64 32.46 45.23 32.46L5.73 32.46C5.32 32.46 4.96 32.6 4.66 32.87C4.36 33.14 4.21 33.47 4.21 33.84L4.21 39.34C4.21 39.72 4.36 40.04 4.66 40.31C4.96 40.58 5.32 40.72 5.73 40.72L45.23 40.72C45.64 40.72 46 40.58 46.3 40.31C46.6 40.04 46.75 39.72 46.75 39.34L46.75 33.84C46.75 33.47 46.6 33.14 46.3 32.87ZM46.3 21.86C46 21.59 45.64 21.46 45.23 21.46L5.73 21.46C5.32 21.46 4.96 21.59 4.66 21.86C4.36 22.14 4.21 22.46 4.21 22.83L4.21 28.34C4.21 28.71 4.36 29.03 4.66 29.3C4.96 29.58 5.32 29.71 5.73 29.71L45.23 29.71C45.64 29.71 46 29.58 46.3 29.3C46.6 29.03 46.75 28.71 46.75 28.34L46.75 22.83C46.75 22.46 46.6 22.14 46.3 21.86ZM46.3 10.85C46 10.58 45.64 10.45 45.23 10.45L5.73 10.45C5.32 10.45 4.96 10.58 4.66 10.85C4.36 11.13 4.21 11.45 4.21 11.82L4.21 17.33C4.21 17.7 4.36 18.02 4.66 18.29C4.96 18.57 5.32 18.7 5.73 18.7L45.23 18.7C45.64 18.7 46 18.57 46.3 18.29C46.6 18.02 46.75 17.7 46.75 17.33L46.75 11.82C46.75 11.45 46.6 11.13 46.3 10.85Z" />
</svg>