<svg xmlns="http://www.w3.org/2000/svg" viewBox="0 0 300 300" width="300" height="300" class="mktarget">
	<style>
	svg.mktarget{background-blend-mode: difference;mix-blend-mode:screen;background: rgb(0,0,0);
background: -moz-radial-gradient(circle, rgba(0,0,0,0.25264041163340334) 0%, rgba(0,0,0,1) 99%);
background: -webkit-radial-gradient(circle, rgba(0,0,0,0.25264041163340334) 0%, rgba(0,0,0,1) 99%);
background: radial-gradient(circle, rgba(0,0,0,0.25264041163340334) 0%, rgba(0,0,0,1) 99%);
filter: progid:DXImageTransform.Microsoft.gradient(startColorstr="#000000",endColorstr="#000000",GradientType=1);}
		tspan { white-space:pre }
		.thecircle { fill: none; stroke: #FFFFFF; stroke-linecap:round; stroke-linejoin:round; stroke-width: 10.47; } 
		.thecross { fill: #ffffff; opacity:.7; } 
		.triunghileft { fill: #ffffff; transform:translate(40px,0px) rotate(0deg);transform-origin:center center;} 
		.triunghiright { fill: #ffffff; transform:translate(-40px,0px) rotate(0deg);transform-origin:center center;}
		
		
		.thecircle{}
		#mkcross{transform: rotate(0deg);transform-origin:center center;}
	</style>
	<path id="mkcircle" class="thecircle" d="M150 5C230.08 5 295 69.92 295 150C295 230.08 230.08 295 150 295C69.92 295 5 230.08 5 150C5 69.92 69.92 5 150 5Z" />
	<path id="mkcross" class="thecross" d="M295.52 157.36L157.87 157.36L157.87 295L143.03 295L143.03 157.36L5.39 157.36L5.39 142.52L143.03 142.52L143.03 4.87L157.87 4.87L157.87 142.52L295.52 142.52L295.52 157.36Z" />
	<path id="mktri1" class="triunghileft" d="M51.1 148.82L31.98 135.35C31.44 134.97 30.8 134.78 30.06 134.78C29.32 134.78 28.68 134.97 28.14 135.35C27.6 135.73 27.33 136.18 27.33 136.7L27.33 163.65C27.33 164.17 27.6 164.62 28.14 165.01C28.68 165.39 29.32 165.58 30.06 165.58C30.8 165.58 31.44 165.39 31.98 165.01L51.1 151.53C51.64 151.15 51.91 150.7 51.91 150.18C51.91 149.66 51.64 149.2 51.1 148.82L51.1 148.82Z" />
	<path id="mktri2" class="triunghiright" d="M249.9 148.82L269.01 135.35C269.56 134.97 270.2 134.78 270.94 134.78C271.68 134.78 272.32 134.97 272.86 135.35C273.4 135.73 273.67 136.18 273.67 136.7L273.67 163.65C273.67 164.17 273.4 164.62 272.86 165.01C272.32 165.39 271.68 165.58 270.94 165.58C270.2 165.58 269.56 165.39 269.01 165.01L249.9 151.53C249.36 151.15 249.09 150.7 249.09 150.18C249.09 149.66 249.36 149.2 249.9 148.82L249.9 148.82Z" />
</svg>