<svg xmlns="http://www.w3.org/2000/svg" viewBox="0 0 50 50" width="50" height="50">
	<style>
		tspan { white-space:pre }
		.shp0 { fill: #3cb878 } 
		#mkteam{opacity:0.7;}
		
	</style>
	<path id="mkteam" class="shp0" d="M26.19 34.36C25.98 34.57 25.75 34.67 25.48 34.67C25.22 34.67 24.98 34.57 24.78 34.36L10.49 19.79C10.28 19.58 10.18 19.34 10.18 19.07C10.18 18.8 10.28 18.56 10.49 18.35L12.02 16.79C12.22 16.58 12.46 16.47 12.73 16.47C12.99 16.47 13.23 16.58 13.43 16.79L25.48 29.08L37.53 16.79C37.74 16.58 37.97 16.47 38.24 16.47C38.5 16.47 38.74 16.58 38.94 16.79L40.48 18.35C40.68 18.56 40.78 18.8 40.78 19.07C40.78 19.34 40.68 19.58 40.48 19.79L26.19 34.36ZM26.19 23.61C25.98 23.82 25.75 23.92 25.48 23.92C25.22 23.92 24.98 23.82 24.78 23.61L10.49 9.04C10.28 8.83 10.18 8.59 10.18 8.32C10.18 8.05 10.28 7.81 10.49 7.6L12.02 6.04C12.22 5.83 12.46 5.72 12.73 5.72C12.99 5.72 13.23 5.83 13.43 6.04L25.48 18.33L37.53 6.04C37.74 5.83 37.97 5.72 38.24 5.72C38.5 5.72 38.74 5.83 38.94 6.04L40.48 7.6C40.68 7.81 40.78 8.05 40.78 8.32C40.78 8.59 40.68 8.83 40.48 9.04L26.19 23.61ZM12.02 27.54C12.22 27.33 12.46 27.22 12.73 27.22C12.99 27.22 13.23 27.33 13.43 27.54L25.48 39.83L37.53 27.54C37.74 27.33 37.97 27.22 38.24 27.22C38.5 27.22 38.74 27.33 38.94 27.54L40.48 29.1C40.68 29.31 40.78 29.55 40.78 29.82C40.78 30.09 40.68 30.33 40.48 30.54L26.19 45.11C25.98 45.32 25.75 45.42 25.48 45.42C25.22 45.42 24.98 45.32 24.78 45.11L10.49 30.54C10.28 30.33 10.18 30.09 10.18 29.82C10.18 29.55 10.28 29.31 10.49 29.1L12.02 27.54Z" />
</svg>