<svg xmlns="http://www.w3.org/2000/svg" viewBox="0 0 584 107" width="584" height="107" class="marketerbayOPS">
	<style>
	svg.marketerbayOPS{background-blend-mode:screen;opacity:.7;}
		tspan { white-space:pre }
		
		
		.lineup,
		.linedown { opacity: .5;fill: #ffffff }
		
		.bigO,
		.bigP,
		.bigS{opacity: .5;fill: #ffffff;}
		
		.smM1{opacity: .3;fill: #ffffff;}
		
		.smA1{opacity: .5;fill: #ffffff;}
		
		.smR1{opacity: .6;fill: #ffffff;}
		
		.smK1{opacity: .4;fill: #ffffff;}
		
		.smE1{opacity: .7;fill: #ffffff;}
		
		.smT1{opacity: .4;fill: #ffffff;}
		
		.smE2{opacity: .3;fill: #ffffff;}
		
		.smR2{fill: #ffffff;opacity:0.7;}
		
		.smB1{opacity: .3;fill: #ffffff;}
		
		.smA2{opacity: .5;fill: #ffffff;}
		
		.smY1{fill: #ffffff;}
		
		.smDOT1{fill:#ffffff;opacity:0.7;}
		
		.smC1{fill: #ffffff;}
		
		.smO1{fill: #ffffff;opacity:0.7;}
		
		.smM2{opacity: 1;fill: #ffffff;}
		
		#liner-D{opacity: 1;fill: #ffffff}
		#liner-U{opacity: 1;fill: #ffffff}
		
		
		
		
		
		#letter-O{}
		#letter-P{}
		#letter-S{}
		
		
		
		
		/*** MK Letters ***/
		#mletter-1M{}
		#mletter-1A{}
		#mletter-1R{}
		#mletter-1K{}
		#mletter-1E{}
		#mletter-1T{}
		#mletter-2E{}
		#mletter-2R{}
		#mletter-1B{}
		#mletter-2A{}
		#mletter-1Y{}
		#mletter-1dot{}
		#mletter-1C{}
		#mletter-1O{}
		#mletter-2M{}
	</style>
	<path id="liner-D" class="linedown" d="M0 59L339.03 59L368.68 76.48L23.71 76.48L0 59Z" />
	<path id="liner-U" class="lineup" d="M498.31 0L554.36 0L584 17.48L522.03 17.48L498.31 0Z" />
	<path id="letter-O" class="bigO" d="M356.14 54.9C357.57 58.54 359.58 61.94 362.18 65.1C364.78 68.25 367.99 70.89 371.81 73.01C375.64 75.13 379.9 76.19 384.59 76.19C388.05 76.19 391.42 75.53 394.72 74.21C398.02 72.89 400.93 71.07 403.45 68.75C405.96 66.42 408.13 63.82 409.93 60.95C411.74 58.08 413.19 54.77 414.29 51.04C415.38 47.3 415.93 43.33 415.93 39.12C415.93 33.47 414.91 28.13 412.88 23.11C411.4 19.4 409.37 15.97 406.77 12.82C404.17 9.66 400.95 7.06 397.09 5C393.24 2.94 389.08 1.91 384.59 1.91C379.79 1.91 375.25 3.14 370.98 5.59C367.68 7.47 364.68 10.05 361.96 13.31C359.24 16.58 357.11 20.47 355.55 24.99C353.99 29.51 353.22 34.25 353.22 39.22C353.22 44.65 354.19 49.88 356.14 54.9L356.14 54.9ZM365.86 29.63C366.87 26.57 368.28 23.94 370.07 21.74C371.86 19.55 373.97 17.75 376.38 16.35C378.8 14.95 381.53 14.25 384.59 14.25C388.1 14.25 391.44 15.34 394.62 17.5C397.8 19.67 400.3 22.72 402.12 26.66C403.94 30.6 404.85 34.74 404.85 39.07C404.85 43.41 403.94 47.54 402.12 51.46C400.3 55.39 397.79 58.43 394.6 60.6C391.41 62.76 388.07 63.85 384.59 63.85C381.58 63.85 378.85 63.14 376.38 61.73C373.92 60.32 371.82 58.53 370.09 56.36C368.36 54.19 366.97 51.63 365.92 48.68C364.86 45.73 364.33 42.54 364.33 39.12C364.33 35.86 364.84 32.69 365.86 29.63Z" />
	<path id="letter-P" class="bigP" d="M436.67 74.73L436.67 47.5L440.63 47.5C446.64 47.5 451.1 46.75 453.98 45.24C456.87 43.74 459.25 41.24 461.11 37.76C462.97 34.27 463.9 30.17 463.9 25.46C463.9 22.35 463.51 19.57 462.75 17.1C461.98 14.64 460.91 12.48 459.52 10.63C458.14 8.78 456.63 7.32 455.01 6.27C453.39 5.22 451.54 4.47 449.45 4.01C447.37 3.56 444.43 3.33 440.63 3.33L425.56 3.33L425.56 74.73L436.67 74.73ZM436.67 15.71L440.63 15.71C443.74 15.71 446.1 16.04 447.69 16.7C449.29 17.36 450.53 18.46 451.43 20C452.33 21.54 452.78 23.34 452.78 25.42C452.78 28.68 451.86 31.12 450.03 32.74C448.19 34.36 444.93 35.17 440.23 35.17L436.67 35.17L436.67 15.71Z" />
	<path id="letter-S" class="bigS" d="M468.79 60.08C469.29 62.18 470.07 64.18 471.12 66.06C472.18 67.94 473.55 69.66 475.24 71.22C476.93 72.77 478.86 73.99 481.03 74.87C483.21 75.75 485.46 76.19 487.78 76.19C492.32 76.19 496.31 74.65 499.77 71.57C504.57 67.3 506.97 61.41 506.97 53.91C506.97 50.93 506.61 48.22 505.88 45.79C505.16 43.35 504.13 41.22 502.79 39.38C501.46 37.54 499.65 35.89 497.35 34.41C495.85 33.44 493.4 32.27 490 30.9C486.59 29.54 484.38 28.34 483.35 27.3C481.98 25.92 481.29 24.03 481.29 21.65C481.29 19.45 481.87 17.67 483.03 16.3C484.19 14.94 485.74 14.25 487.66 14.25C489.8 14.25 491.43 15.07 492.57 16.7C493.31 17.77 493.85 19.62 494.19 22.26L505.51 22.26C505.32 19.34 504.87 16.81 504.16 14.65C503.45 12.5 502.35 10.49 500.88 8.6C499.4 6.72 497.5 5.13 495.18 3.85C492.86 2.56 490.32 1.91 487.58 1.91C484.52 1.91 481.61 2.8 478.86 4.58C476.1 6.35 473.96 8.85 472.43 12.06C470.9 15.28 470.13 18.79 470.13 22.59C470.13 25.57 470.59 28.34 471.52 30.88C472.44 33.42 473.73 35.54 475.38 37.24C477.02 38.93 479.52 40.55 482.87 42.09C487.81 44.38 490.68 45.79 491.5 46.33C493.03 47.3 494.14 48.42 494.84 49.67C495.54 50.93 495.89 52.51 495.89 54.43C495.89 57.13 495.14 59.37 493.64 61.16C492.13 62.95 490.19 63.85 487.82 63.85C485.1 63.85 483.01 62.7 481.53 60.41C480.55 58.93 479.93 56.89 479.67 54.29L468 54.29C468.16 56.61 468.42 58.54 468.79 60.08L468.79 60.08Z" />
	<path id="mletter-1M" class="smM1" d="M258.18 105.85L258.18 91.29L258.23 91.29L263.02 105.85L265.94 105.85L270.7 91.29L270.78 91.29L270.78 105.85L274.23 105.85L274.23 86.44L269.45 86.44L264.53 101.12L264.47 101.12L259.51 86.44L254.72 86.44L254.72 105.85L258.18 105.85Z" />
	<path id="mletter-1A" class="smA1" d="M282.32 105.85L284.32 100.84L291 100.84L292.98 105.85L296.8 105.85L288.98 86.44L286.28 86.44L278.52 105.85L282.32 105.85ZM285.47 97.46L287.59 91.51L287.64 91.51L289.76 97.46L285.47 97.46Z" />
	<path id="mletter-1R" class="smR1" d="M303.37 105.85L303.37 98.42L303.42 98.42L308.36 105.85L312.54 105.85L307.47 98.69C308.23 98.51 308.88 98.29 309.42 98.01C309.96 97.74 310.47 97.35 310.94 96.85C311.42 96.36 311.81 95.73 312.12 94.97C312.43 94.21 312.58 93.4 312.58 92.53C312.58 91.56 312.38 90.66 311.98 89.84C311.69 89.25 311.3 88.69 310.81 88.19C310.32 87.68 309.76 87.29 309.13 87.03C308.22 86.64 307.06 86.44 305.64 86.44L299.91 86.44L299.91 105.85L303.37 105.85ZM305.59 89.81C306.36 89.81 306.97 89.92 307.42 90.15C307.87 90.38 308.24 90.74 308.51 91.21C308.78 91.69 308.91 92.21 308.91 92.78C308.91 93.35 308.78 93.87 308.51 94.33C308.24 94.79 307.89 95.12 307.47 95.32C306.91 95.6 306.28 95.73 305.59 95.73L303.37 95.73L303.37 89.81L305.59 89.81Z" />
	<path id="mletter-1K" class="smK1" d="M320.81 105.85L320.81 97.32L320.86 97.32L326.68 105.85L330.73 105.85L323.7 95.99L330.73 86.44L326.68 86.44L320.86 94.84L320.81 94.84L320.81 86.44L317.35 86.44L317.35 105.85L320.81 105.85Z" />
	<path id="mletter-1E" class="smE1" d="M342.43 105.85L342.43 102.49L335.86 102.49L335.86 97.9L342.16 97.9L342.16 94.54L335.86 94.54L335.86 89.81L342.43 89.81L342.43 86.44L332.4 86.44L332.4 105.85L342.43 105.85Z" />
	<path id="mletter-1T" class="smT1" d="M351.57 105.85L351.57 89.81L355.05 89.81L355.05 86.44L344.67 86.44L344.67 89.81L348.12 89.81L348.12 105.85L351.57 105.85Z" />
	<path id="mletter-2E" class="smE2" d="M368.69 105.85L368.69 102.49L362.12 102.49L362.12 97.9L368.42 97.9L368.42 94.54L362.12 94.54L362.12 89.81L368.69 89.81L368.69 86.44L358.66 86.44L358.66 105.85L368.69 105.85Z" />
	<path id="mletter-2R" class="smR2" d="M375.85 105.85L375.85 98.42L375.9 98.42L380.83 105.85L385.02 105.85L379.95 98.69C380.7 98.51 381.35 98.29 381.89 98.01C382.43 97.74 382.94 97.35 383.42 96.85C383.89 96.36 384.29 95.73 384.59 94.97C384.9 94.21 385.06 93.4 385.06 92.53C385.06 91.56 384.85 90.66 384.45 89.84C384.16 89.25 383.78 88.69 383.28 88.19C382.79 87.68 382.23 87.29 381.61 87.03C380.7 86.64 379.53 86.44 378.11 86.44L372.39 86.44L372.39 105.85L375.85 105.85ZM378.06 89.81C378.84 89.81 379.45 89.92 379.9 90.15C380.35 90.38 380.71 90.74 380.98 91.21C381.25 91.69 381.39 92.21 381.39 92.78C381.39 93.35 381.25 93.87 380.98 94.33C380.71 94.79 380.37 95.12 379.95 95.32C379.38 95.6 378.75 95.73 378.06 95.73L375.85 95.73L375.85 89.81L378.06 89.81Z" />
	<path id="mletter-1B" class="smB1" d="M392.93 105.85C394.16 105.85 395.11 105.79 395.79 105.66C396.48 105.54 397.07 105.34 397.55 105.07C398.04 104.81 398.51 104.42 398.96 103.92C399.42 103.42 399.77 102.86 400.03 102.23C400.29 101.6 400.42 100.86 400.42 100.01C400.42 99.22 400.29 98.5 400.03 97.85C399.77 97.2 399.38 96.65 398.85 96.2C398.45 95.85 397.91 95.53 397.22 95.26C398.61 94.43 399.31 93.21 399.31 91.59C399.31 90.73 399.13 89.98 398.77 89.31C398.42 88.65 397.95 88.1 397.37 87.64C396.79 87.19 396.13 86.88 395.38 86.7C394.63 86.53 393.49 86.44 391.97 86.44L388.29 86.44L388.29 105.85L392.93 105.85ZM393.18 89.81C394.16 89.81 394.84 89.99 395.25 90.36C395.65 90.73 395.85 91.24 395.85 91.89C395.85 92.55 395.63 93.07 395.2 93.44C394.77 93.81 394 93.99 392.88 93.99L391.75 93.99L391.75 89.81L393.18 89.81ZM393.56 97.35C394.79 97.35 395.67 97.58 396.19 98.05C396.71 98.51 396.97 99.13 396.97 99.91C396.97 100.71 396.71 101.34 396.18 101.8C395.65 102.26 394.75 102.49 393.49 102.49L391.75 102.49L391.75 97.35L393.56 97.35Z" />
	<path id="mletter-2A" class="smA2" d="M405.21 105.85L407.21 100.84L413.89 100.84L415.87 105.85L419.69 105.85L411.87 86.44L409.18 86.44L401.41 105.85L405.21 105.85ZM408.36 97.46L410.48 91.51L410.53 91.51L412.65 97.46L408.36 97.46Z" />
	<path id="mletter-1Y" class="smY1" d="M427.57 105.85L427.57 98.69L433.72 86.44L429.92 86.44L425.83 95.36L421.77 86.44L417.99 86.44L424.12 98.69L424.12 105.85L427.57 105.85Z" />
	<path id="mletter-1dot" class="smDOT1" d="M434.79 105.85L434.79 102.37L431.44 102.37L431.44 105.85L434.79 105.85Z" />
	<path id="mletter-1C" class="smC1" d="M457.3 90.06C456.79 89.33 456.13 88.65 455.34 88.02C454.54 87.39 453.63 86.91 452.61 86.57C451.59 86.23 450.57 86.06 449.56 86.06C448.12 86.06 446.74 86.38 445.43 87.03C444.48 87.51 443.6 88.16 442.79 88.98C441.97 89.8 441.29 90.83 440.74 92.06C440.19 93.29 439.91 94.66 439.91 96.17C439.91 98.92 440.87 101.28 442.78 103.27C444.69 105.25 446.98 106.25 449.65 106.25C450.59 106.25 451.49 106.12 452.35 105.86C453.21 105.61 454.03 105.22 454.81 104.7C455.59 104.19 456.28 103.54 456.9 102.76C457.37 102.17 457.82 101.4 458.26 100.45L454.25 100.45C452.96 102.08 451.42 102.89 449.64 102.89C448.74 102.89 447.89 102.69 447.08 102.28C446.46 101.97 445.88 101.54 445.33 100.98C444.78 100.42 444.31 99.72 443.94 98.88C443.56 98.04 443.37 97.11 443.37 96.09C443.37 94.94 443.65 93.83 444.21 92.77C444.78 91.71 445.54 90.88 446.52 90.29C447.49 89.7 448.49 89.41 449.53 89.41C450.51 89.41 451.4 89.63 452.18 90.08C452.97 90.53 453.72 91.16 454.44 91.98L458.36 91.98C458 91.18 457.65 90.54 457.3 90.06L457.3 90.06Z" />
	<path id="mletter-1O" class="smO1" d="M461.81 100.46C462.25 101.45 462.87 102.37 463.68 103.23C464.49 104.09 465.49 104.81 466.68 105.38C467.87 105.96 469.19 106.25 470.66 106.25C471.73 106.25 472.78 106.07 473.81 105.71C474.83 105.35 475.74 104.85 476.52 104.22C477.3 103.59 477.98 102.89 478.54 102.1C479.1 101.32 479.55 100.42 479.89 99.41C480.23 98.39 480.4 97.31 480.4 96.17C480.4 94.63 480.09 93.18 479.46 91.82C479 90.81 478.36 89.88 477.55 89.02C476.75 88.16 475.74 87.45 474.55 86.89C473.35 86.33 472.05 86.06 470.66 86.06C469.16 86.06 467.75 86.39 466.42 87.05C465.4 87.57 464.46 88.27 463.61 89.15C462.77 90.04 462.1 91.1 461.62 92.33C461.14 93.56 460.89 94.85 460.89 96.2C460.89 97.67 461.2 99.09 461.81 100.46L461.81 100.46ZM464.83 93.59C465.14 92.76 465.58 92.04 466.14 91.45C466.7 90.85 467.35 90.36 468.1 89.98C468.85 89.6 469.7 89.41 470.66 89.41C471.75 89.41 472.79 89.7 473.78 90.29C474.76 90.88 475.54 91.71 476.11 92.78C476.67 93.85 476.96 94.98 476.96 96.16C476.96 97.33 476.67 98.46 476.11 99.52C475.54 100.59 474.76 101.42 473.77 102.01C472.78 102.6 471.74 102.89 470.66 102.89C469.72 102.89 468.87 102.7 468.1 102.32C467.33 101.93 466.68 101.44 466.14 100.86C465.61 100.27 465.17 99.57 464.85 98.77C464.52 97.97 464.35 97.1 464.35 96.17C464.35 95.28 464.51 94.42 464.83 93.59Z" />
	<path id="mletter-2M" class="smM2" d="M486.11 105.85L486.11 91.29L486.16 91.29L490.95 105.85L493.87 105.85L498.63 91.29L498.7 91.29L498.7 105.85L502.16 105.85L502.16 86.44L497.37 86.44L492.46 101.12L492.4 101.12L487.44 86.44L482.65 86.44L482.65 105.85L486.11 105.85Z" />
</svg>