<svg xmlns="http://www.w3.org/2000/svg" viewBox="0 0 31 33" width="31" height="33">
	<style>
		tspan { white-space:pre }
		.shp0 { fill: #e5e5e5 } 
	</style>
	<path id="patreaon" class="shp0" d="M8.7 32.26C8.7 28.39 8.7 24.52 8.7 20.64C8.7 18.67 8.48 16.22 8.94 14.62C9.44 12.87 10.38 11.6 11.66 10.66C12.78 9.83 14.6 8.96 16.66 9.36C19.27 9.88 21.14 11.39 22.07 13.64C24.9 20.43 17.52 26.34 11.87 22.61C11.87 24.34 11.87 26.07 11.87 27.8C12.46 28.02 13.08 28.26 13.79 28.42C20.04 29.79 24.84 25.16 26.48 21.01C27.35 18.81 27.57 15.42 26.81 12.9C25.62 8.98 22.8 6.17 19.03 4.94C16.4 4.08 13.07 4.57 10.95 5.52C7.76 6.96 5.52 9.65 4.47 13.3C3.92 15.21 4.06 17.87 4.06 20.34C4.06 24.31 4.06 28.29 4.06 32.26C2.88 32.26 1.71 32.26 0.54 32.26C0.54 28.22 0.54 24.19 0.54 20.15C0.54 17.48 0.42 14.68 0.98 12.59C2.15 8.19 4.6 5.08 7.99 2.97C10.06 1.68 14 0.17 17.63 0.88C19.63 1.27 21.41 1.73 22.9 2.63C26.52 4.83 29.01 7.81 30.33 12.41C30.7 13.72 31.11 16.39 30.8 18.22C30.6 19.35 30.45 20.41 30.15 21.41C29.54 23.4 28.54 25.1 27.43 26.57C25.25 29.45 22.11 31.27 17.99 32.14C17 32.35 15.76 32.26 14.62 32.26C12.65 32.26 10.67 32.26 8.7 32.26Z" />
</svg>