<svg xmlns="http://www.w3.org/2000/svg" viewBox="0 0 28 36" width="28" height="36">
	<style>
		tspan { white-space:pre }
		.shp0 { fill: #e5e5e5 } 
	</style>
	<path id="paypal" class="shp0" d="M16.86 12.72C16.52 13.47 16.06 14.04 15.47 14.43C14.88 14.82 14.26 15.11 13.6 15.29C12.94 15.47 12.22 15.56 11.46 15.56L10.58 15.56C10.31 15.56 10.08 15.46 9.89 15.24C9.7 15.02 9.61 14.75 9.61 14.41C9.61 14.26 9.62 14.14 9.64 14.07L10.69 8.28C10.77 7.84 10.96 7.48 11.27 7.18C11.57 6.87 11.9 6.72 12.26 6.72L13.42 6.72C16.05 6.72 17.36 7.84 17.36 10.06C17.36 11.08 17.2 11.97 16.86 12.72ZM24.37 6.22C24.94 7.31 25.22 8.76 25.22 10.57C25.22 14.22 24.02 17.17 21.61 19.41C19.2 21.65 15.83 22.77 11.51 22.77L10.49 22.77C10.11 22.77 9.76 22.94 9.44 23.27C9.11 23.61 8.9 24.01 8.81 24.47L7.6 31.11C7.51 31.57 7.3 31.96 6.96 32.29C6.63 32.62 6.28 32.79 5.9 32.79L3.39 32.79C3.24 33.56 3.17 34.01 3.17 34.15C3.17 34.58 3.29 34.94 3.54 35.22C3.78 35.5 4.07 35.64 4.42 35.64L7.96 35.64C8.37 35.64 8.76 35.46 9.12 35.11C9.48 34.75 9.7 34.32 9.79 33.81L11.01 27.18C11.09 26.74 11.27 26.38 11.57 26.08C11.87 25.77 12.2 25.62 12.56 25.62L13.57 25.62C17.93 25.62 21.33 24.5 23.75 22.24C26.2 19.96 27.42 16.97 27.42 13.25C27.42 9.85 26.4 7.51 24.37 6.22L24.37 6.22ZM24.06 6.51C23.86 5.66 23.58 4.94 23.24 4.34C22.89 3.75 22.47 3.23 21.95 2.79C21.43 2.35 20.9 1.99 20.34 1.73C19.79 1.46 19.16 1.25 18.45 1.1C17.75 0.94 17.08 0.84 16.45 0.78C15.82 0.72 15.12 0.7 14.37 0.7L6.98 0.7C6.57 0.7 6.18 0.88 5.82 1.23C5.46 1.59 5.24 2.02 5.15 2.52L0.16 29.85C0.14 30.01 0.13 30.15 0.13 30.27C0.13 30.71 0.24 31.07 0.48 31.35C0.72 31.62 1.01 31.76 1.36 31.76L4.92 31.76C5.33 31.76 5.71 31.58 6.07 31.22C6.42 30.86 6.64 30.43 6.73 29.93L7.95 23.31C8.02 22.88 8.21 22.51 8.52 22.2C8.83 21.89 9.16 21.74 9.51 21.74L10.51 21.74C14.88 21.74 18.27 20.61 20.69 18.36C23.14 16.06 24.37 13.07 24.37 9.37C24.37 8.32 24.27 7.37 24.06 6.51Z" />
</svg>