<svg xmlns="http://www.w3.org/2000/svg" viewBox="0 0 33 34" width="33" height="34">
	<style>
		tspan { white-space:pre }
		.shp0 { fill: #e5e5e5 } 
	</style>
	<path id="stream" class="shp0" d="M22.45 15.89C21.33 15.89 20.37 15.49 19.58 14.68C18.79 13.88 18.39 12.9 18.39 11.77C18.39 10.64 18.79 9.67 19.58 8.86C20.37 8.05 21.33 7.64 22.45 7.64C23.57 7.64 24.53 8.05 25.33 8.85C26.13 9.65 26.53 10.63 26.53 11.77C26.53 12.9 26.13 13.88 25.33 14.68C24.53 15.49 23.57 15.89 22.45 15.89ZM9.54 20.1C9.26 20.1 8.97 20.13 8.66 20.2L10.38 20.91C11.24 21.25 11.84 21.85 12.2 22.7C12.56 23.56 12.57 24.41 12.23 25.26C11.88 26.13 11.29 26.75 10.44 27.11C9.6 27.48 8.76 27.49 7.92 27.14C7.28 26.86 6.59 26.58 5.86 26.29C6.21 26.97 6.72 27.52 7.37 27.94C8.03 28.35 8.76 28.55 9.54 28.55C10.69 28.55 11.67 28.15 12.48 27.33C13.3 26.51 13.7 25.51 13.7 24.33C13.7 23.14 13.3 22.14 12.48 21.32C11.67 20.51 10.69 20.1 9.54 20.1L9.54 20.1ZM30.93 2.48C29.75 1.28 28.32 0.68 26.65 0.68L6.47 0.68C4.8 0.68 3.38 1.28 2.19 2.48C1.01 3.69 0.42 5.14 0.42 6.83L0.42 16.83L6.66 19.37C7.53 18.84 8.49 18.58 9.54 18.58C9.81 18.58 10 18.59 10.13 18.6L14.86 11.72C14.89 9.62 15.64 7.82 17.11 6.33C18.58 4.84 20.35 4.1 22.43 4.1C24.53 4.1 26.32 4.85 27.8 6.35C29.28 7.85 30.02 9.67 30.02 11.81C30.02 13.93 29.28 15.74 27.8 17.24C26.32 18.75 24.53 19.5 22.43 19.5L15.17 24.88C15.03 26.35 14.42 27.58 13.35 28.58C12.27 29.57 11 30.07 9.54 30.07C8.21 30.07 7.03 29.64 6 28.79C4.97 27.94 4.31 26.85 4.03 25.54L0.42 24.07L0.42 27.34C0.42 29.03 1.01 30.48 2.19 31.68C3.38 32.89 4.8 33.49 6.47 33.49L26.65 33.49C28.32 33.49 29.75 32.89 30.93 31.68C32.12 30.48 32.71 29.03 32.71 27.34L32.71 6.83C32.71 5.14 32.12 3.69 30.93 2.48ZM26.03 8.14C25.04 7.14 23.84 6.64 22.43 6.64C21.03 6.64 19.83 7.14 18.84 8.16C17.85 9.17 17.36 10.38 17.36 11.81C17.36 13.23 17.85 14.45 18.84 15.45C19.83 16.45 21.03 16.96 22.43 16.96C23.83 16.96 25.03 16.45 26.02 15.45C27.02 14.45 27.51 13.23 27.51 11.81C27.51 10.37 27.02 9.15 26.03 8.14Z" />
</svg>