<svg xmlns="http://www.w3.org/2000/svg" viewBox="0 0 150 200" width="150" height="200">
	<style>
		tspan { white-space:pre }
		.shp0 { fill: #222 } 
		.shp1 { opacity: 0.4;fill: #0CC } 
		.star{opacity: 0.4;fill: #0CC}
	.halmet{fill: url(#grad2);}
	.mouth{fill: url(#grad3);}
	</style>
	<defs>
	<linearGradient id="grad2">
      <stop offset="0%" style="stop-color:rgb(84,158,156);stop-opacity:1" />
      <stop offset="100%" style="stop-color:rgb(115,158,84);stop-opacity:1" />
    </linearGradient>
	<linearGradient id="grad3">
      <stop offset="0%" style="stop-color:rgb(84,158,156);stop-opacity:1" />
      <stop offset="100%" style="stop-color:rgb(115,158,84);stop-opacity:1" />
    </linearGradient>
	</defs>
	<path id="t1mouth" class="mouth" d="M35.16 110.68L30.65 113.51L30.01 122.62L33.14 131.81L44.14 139.25L58.59 137.68L78.12 118.5L76.95 111.85C76.95 111.85 60.55 114.98 55.08 113.02C49.61 111.07 47.27 104.02 45.31 104.02C43.36 104.02 40.23 103.63 35.16 110.68ZM80.61 111.1L81.53 117.17L98.28 108.52L102.33 101.35L80.61 111.1Z" />
	<path id="t1halmet" class="halmet" d="M23.52 69.75C23.52 69.75 35.18 49.77 36.49 47.99C42.45 39.9 55.42 30.61 63.48 28.61C71.89 26.52 92.02 25.2 105.18 37.88C115.39 47.71 118.5 66.95 122 69.75C125.51 72.56 90.11 79.56 85.56 79.56C81 79.56 43.15 77.81 34.74 75.71C26.33 73.61 23.52 69.75 23.52 69.75ZM90.87 76.1C90.87 76.1 95.14 75.51 96.32 85.05C98.07 99.14 117.86 95.72 119.61 94.32C121.36 92.92 130.99 78.09 123.3 68.42C118.67 62.6 90.87 67 90.87 76.1Z" />
	<path id="t1glass" class="star" d="M23.48 70.85C23.48 70.85 25.58 94.32 30.14 101.67C34.7 109.03 40.65 97.47 44.86 98.52C49.07 99.57 52 108.94 58.88 108.68C67.21 108.36 77.45 108.33 80.61 104.82C83.76 101.32 87.27 88.71 93.93 86.61C100.58 84.51 95.68 75.4 95.68 75.4C95.68 75.4 65.19 78.91 44.51 75.75C23.83 72.6 25.58 67 25.58 67L23.48 70.85Z" />
	<path id="t1star" class="star" d="M84.1 176.88L76.73 173.18L69.34 176.88L70.76 169.05L64.78 163.53L73.03 162.38L76.73 155.27L80.42 162.38L88.67 163.53L82.69 169.05L84.1 176.88ZM91.9 161.56L82.08 160.2L77.69 151.74C77.44 151.23 77.12 150.98 76.73 150.98C76.34 150.98 76.02 151.23 75.77 151.74L71.37 160.2L61.56 161.56C60.83 161.67 60.46 161.96 60.46 162.41C60.46 162.67 60.63 162.97 60.95 163.31L68.07 169.89L66.39 179.19C66.36 179.36 66.35 179.48 66.35 179.56C66.35 179.82 66.42 180.04 66.55 180.22C66.69 180.4 66.89 180.49 67.17 180.49C67.4 180.49 67.66 180.41 67.95 180.26L76.73 175.88L85.51 180.26C85.78 180.41 86.04 180.49 86.29 180.49C86.82 180.49 87.09 180.18 87.09 179.56C87.09 179.4 87.08 179.27 87.07 179.19L85.39 169.89L92.48 163.31C92.82 162.98 92.99 162.69 92.99 162.41C92.99 161.96 92.63 161.67 91.9 161.56L91.9 161.56Z" />
</svg>