<svg xmlns="http://www.w3.org/2000/svg" viewBox="0 0 150 200" width="150" height="200">
	<style>
		tspan { white-space:pre }
		.shp0 { fill: #222 } 
		.shp1 { opacity: 0.4;fill: #0CC } 
		.star{opacity: 0.4;fill: #0CC}
		.halmet{fill: url(#grad2);}
		.mouth{fill: url(#grad3);}
	</style>
	<defs>
	<linearGradient id="grad2">
      <stop offset="0%" style="stop-color:rgb(84,158,156);stop-opacity:1" />
      <stop offset="100%" style="stop-color:rgb(115,158,84);stop-opacity:1" />
    </linearGradient>
	<linearGradient id="grad3">
      <stop offset="0%" style="stop-color:rgb(84,158,156);stop-opacity:1" />
      <stop offset="100%" style="stop-color:rgb(115,158,84);stop-opacity:1" />
    </linearGradient>
	</defs>
	<path id="t2mouth" class="mouth" d="M35.16 110.68L30.65 113.51L30.01 122.62L33.14 131.81L44.14 139.25L58.59 137.68L78.12 118.5L76.95 111.85C76.95 111.85 60.55 114.98 55.08 113.02C49.61 111.07 47.27 104.02 45.31 104.02C43.36 104.02 40.23 103.63 35.16 110.68ZM80.61 111.1L81.53 117.17L98.28 108.52L102.33 101.35L80.61 111.1Z" />
	<path id="t2halmet" class="halmet" d="M23.52 69.75C23.52 69.75 35.18 49.77 36.49 47.99C42.45 39.9 55.42 30.61 63.48 28.61C71.89 26.52 92.02 25.2 105.18 37.88C115.39 47.71 118.5 66.95 122 69.75C125.51 72.56 90.11 79.56 85.56 79.56C81 79.56 43.15 77.81 34.74 75.71C26.33 73.61 23.52 69.75 23.52 69.75ZM90.87 76.1C90.87 76.1 95.14 75.51 96.32 85.05C98.07 99.14 117.86 95.72 119.61 94.32C121.36 92.92 130.99 78.09 123.3 68.42C118.67 62.6 90.87 67 90.87 76.1Z" />
	<path id="t2glass" class="shp1" d="M23.48 70.85C23.48 70.85 25.58 94.32 30.14 101.67C34.7 109.03 40.65 97.47 44.86 98.52C49.07 99.57 52 108.94 58.88 108.68C67.21 108.36 77.45 108.33 80.61 104.82C83.76 101.32 87.27 88.71 93.93 86.61C100.58 84.51 95.68 75.4 95.68 75.4C95.68 75.4 65.19 78.91 44.51 75.75C23.83 72.6 25.58 67 25.58 67L23.48 70.85Z" />
	<path id="t2star" class="star" d="M47.1 176.88L39.73 173.18L32.34 176.88L33.76 169.05L27.78 163.53L36.03 162.38L39.73 155.27L43.42 162.38L51.67 163.53L45.69 169.05L47.1 176.88ZM54.9 161.56L45.08 160.2L40.69 151.74C40.44 151.23 40.12 150.98 39.73 150.98C39.34 150.98 39.02 151.23 38.77 151.74L34.37 160.2L24.56 161.56C23.83 161.67 23.46 161.96 23.46 162.41C23.46 162.67 23.63 162.97 23.95 163.31L31.07 169.89L29.39 179.19C29.36 179.36 29.35 179.48 29.35 179.56C29.35 179.82 29.42 180.04 29.55 180.22C29.69 180.4 29.89 180.49 30.17 180.49C30.4 180.49 30.66 180.41 30.95 180.26L39.73 175.88L48.51 180.26C48.78 180.41 49.04 180.49 49.29 180.49C49.82 180.49 50.09 180.18 50.09 179.56C50.09 179.4 50.08 179.27 50.07 179.19L48.39 169.89L55.48 163.31C55.82 162.98 55.99 162.69 55.99 162.41C55.99 161.96 55.63 161.67 54.9 161.56L54.9 161.56Z" />
	<path id="t2star2" class="star" d="M120.1 176.88L112.73 173.18L105.34 176.88L106.76 169.05L100.78 163.53L109.03 162.38L112.73 155.27L116.42 162.38L124.67 163.53L118.69 169.05L120.1 176.88ZM127.9 161.56L118.08 160.2L113.69 151.74C113.44 151.23 113.12 150.98 112.73 150.98C112.34 150.98 112.02 151.23 111.77 151.74L107.37 160.2L97.56 161.56C96.83 161.67 96.46 161.96 96.46 162.41C96.46 162.67 96.63 162.97 96.95 163.31L104.07 169.89L102.39 179.19C102.36 179.36 102.35 179.48 102.35 179.56C102.35 179.82 102.42 180.04 102.55 180.22C102.69 180.4 102.89 180.49 103.17 180.49C103.4 180.49 103.66 180.41 103.95 180.26L112.73 175.88L121.51 180.26C121.78 180.41 122.04 180.49 122.29 180.49C122.82 180.49 123.09 180.18 123.09 179.56C123.09 179.4 123.08 179.27 123.07 179.19L121.39 169.89L128.48 163.31C128.82 162.98 128.99 162.69 128.99 162.41C128.99 161.96 128.63 161.67 127.9 161.56L127.9 161.56Z" />
</svg>