<svg xmlns="http://www.w3.org/2000/svg" viewBox="0 0 33 33" width="33" height="33">
	<style>
		tspan { white-space:pre }
		.shp0 { fill: #e5e5e5 } 
	</style>
	<path id="twitch" class="shp0" d="M13.46 9.06L13.46 17.43L16.33 17.43L16.33 9.06L13.46 9.06ZM21.36 9.06L21.36 17.43L24.24 17.43L24.24 9.06L21.36 9.06ZM16.33 23.71L12.03 27.89L12.03 23.71L5.55 23.71L5.55 3.49L29.26 3.49L29.26 18.81L24.24 23.71L16.33 23.71ZM2.69 0.7L0.53 6.27L0.53 28.59L8.43 28.59L8.43 32.77L12.74 32.77L17.05 28.59L23.52 28.59L32.14 20.22L32.14 0.7L2.69 0.7Z" />
</svg>