<svg xmlns="http://www.w3.org/2000/svg" viewBox="0 0 37 32" width="37" height="32">
	<style>
		tspan { white-space:pre }
		.shp0 { fill: #e5e5e5 } 
	</style>
	<path id="twt" class="shp0" d="M31.99 5.65C33.59 4.62 34.68 3.17 35.24 1.29C33.78 2.22 32.21 2.86 30.54 3.2C29.08 1.53 27.27 0.7 25.13 0.7C23.08 0.7 21.34 1.47 19.89 3.02C18.45 4.56 17.73 6.42 17.73 8.61C17.73 9.2 17.79 9.8 17.91 10.42C14.88 10.26 12.04 9.44 9.39 7.98C6.74 6.52 4.49 4.58 2.64 2.15C1.97 3.37 1.63 4.7 1.63 6.14C1.63 7.49 1.93 8.75 2.52 9.9C3.12 11.06 3.92 12 4.93 12.72C3.74 12.67 2.62 12.34 1.58 11.72L1.58 11.81C1.58 13.72 2.14 15.4 3.27 16.84C4.39 18.29 5.81 19.2 7.52 19.57C6.88 19.75 6.23 19.84 5.57 19.84C5.14 19.84 4.68 19.8 4.17 19.72C4.65 21.3 5.52 22.6 6.79 23.62C8.06 24.64 9.49 25.17 11.1 25.2C8.41 27.45 5.34 28.58 1.9 28.58C1.25 28.58 0.65 28.55 0.12 28.48C3.56 30.85 7.35 32.03 11.49 32.03C14.12 32.03 16.59 31.58 18.89 30.7C21.2 29.81 23.17 28.62 24.81 27.12C26.45 25.63 27.86 23.91 29.04 21.97C30.23 20.03 31.11 18 31.69 15.89C32.27 13.78 32.56 11.66 32.56 9.54C32.56 9.08 32.55 8.74 32.54 8.51C33.99 7.38 35.23 6.02 36.25 4.42C34.83 5.08 33.41 5.48 31.99 5.65L31.99 5.65Z" />
</svg>