<svg xmlns="http://www.w3.org/2000/svg" viewBox="0 0 40 29" width="40" height="29">
	<style>
		tspan { white-space:pre }
		.shp0 { fill: #e5e5e5 } 
	</style>
	<path id="youtube" class="shp0" d="M28.11 15.87L16.9 22.87C16.69 23.01 16.45 23.09 16.16 23.09C15.94 23.09 15.71 23.03 15.48 22.91C14.99 22.65 14.75 22.24 14.75 21.69L14.75 7.7C14.75 7.14 14.99 6.74 15.48 6.47C15.97 6.21 16.45 6.23 16.9 6.52L28.11 13.51C28.55 13.76 28.77 14.15 28.77 14.69C28.77 15.23 28.55 15.62 28.11 15.87L28.11 15.87ZM39.77 8.43C39.66 7.23 39.5 6.15 39.3 5.21C39.06 4.14 38.56 3.25 37.78 2.52C36.99 1.79 36.09 1.37 35.05 1.25C31.81 0.88 26.91 0.7 20.36 0.7C13.8 0.7 8.91 0.88 5.67 1.25C4.63 1.37 3.73 1.79 2.95 2.52C2.18 3.25 1.68 4.14 1.44 5.21C1.22 6.15 1.06 7.23 0.95 8.43C0.84 9.63 0.78 10.63 0.76 11.41C0.75 12.2 0.74 13.29 0.74 14.69C0.74 16.09 0.75 17.18 0.76 17.97C0.78 18.76 0.84 19.75 0.95 20.95C1.06 22.16 1.22 23.23 1.42 24.18C1.65 25.24 2.16 26.14 2.94 26.87C3.72 27.6 4.63 28.02 5.67 28.13C8.91 28.5 13.8 28.68 20.36 28.68C26.91 28.68 31.81 28.5 35.05 28.13C36.09 28.02 36.99 27.6 37.76 26.87C38.54 26.14 39.04 25.24 39.28 24.18C39.49 23.23 39.66 22.16 39.77 20.95C39.88 19.75 39.94 18.76 39.95 17.97C39.97 17.18 39.98 16.09 39.98 14.69C39.98 13.29 39.97 12.2 39.95 11.41C39.94 10.63 39.88 9.63 39.77 8.43Z" />
</svg>