<svg xmlns="http://www.w3.org/2000/svg" viewBox="0 0 48 147" width="48" height="147">
	<style>
		tspan { white-space:pre }
		.shp0 { fill: #ffffff } 
	</style>
	<path id="mkpad" class="shp0" d="M20.54 15.71C20.39 15.87 20.21 15.94 19.98 15.94L15.31 15.94L15.31 20.86C15.31 21.1 15.23 21.3 15.09 21.45C14.94 21.61 14.76 21.68 14.53 21.68L11.41 21.68C11.19 21.68 11 21.61 10.85 21.45C10.71 21.3 10.64 21.1 10.64 20.86L10.64 15.94L5.96 15.94C5.74 15.94 5.55 15.87 5.4 15.71C5.26 15.56 5.18 15.36 5.18 15.12L5.18 11.84C5.18 11.6 5.26 11.41 5.4 11.25C5.55 11.1 5.74 11.02 5.96 11.02L10.64 11.02L10.64 6.1C10.64 5.86 10.71 5.66 10.85 5.51C11 5.36 11.19 5.28 11.41 5.28L14.53 5.28C14.76 5.28 14.94 5.36 15.09 5.51C15.23 5.66 15.31 5.86 15.31 6.1L15.31 11.02L19.98 11.02C20.21 11.02 20.39 11.1 20.54 11.25C20.69 11.41 20.76 11.6 20.76 11.84L20.76 15.12C20.76 15.36 20.69 15.56 20.54 15.71ZM31.66 20.04C30.8 20.04 30.07 19.72 29.46 19.08C28.85 18.44 28.55 17.67 28.55 16.76C28.55 15.86 28.85 15.08 29.46 14.44C30.07 13.8 30.8 13.48 31.66 13.48C32.52 13.48 33.26 13.8 33.86 14.44C34.47 15.08 34.78 15.86 34.78 16.76C34.78 17.67 34.47 18.44 33.86 19.08C33.26 19.72 32.52 20.04 31.66 20.04ZM37.89 13.48C37.03 13.48 36.3 13.16 35.69 12.52C35.08 11.88 34.78 11.11 34.78 10.2C34.78 9.29 35.08 8.52 35.69 7.88C36.3 7.24 37.03 6.92 37.89 6.92C38.75 6.92 39.49 7.24 40.09 7.88C40.7 8.52 41.01 9.29 41.01 10.2C41.01 11.11 40.7 11.88 40.09 12.52C39.49 13.16 38.75 13.48 37.89 13.48ZM34.78 0.36L12.97 0.36C9.53 0.36 6.6 1.64 4.16 4.2C1.73 6.77 0.51 9.86 0.51 13.48C0.51 17.1 1.73 20.2 4.16 22.76C6.6 25.32 9.53 26.61 12.97 26.61C16.09 26.61 18.83 25.51 21.2 23.32L26.55 23.32C28.92 25.51 31.66 26.61 34.78 26.61C38.22 26.61 41.15 25.32 43.59 22.76C46.02 20.2 47.24 17.1 47.24 13.48C47.24 9.86 46.02 6.77 43.59 4.2C41.15 1.64 38.22 0.36 34.78 0.36L34.78 0.36Z" />
	<path id="mkstats" class="shp0" d="M27.52 63.22L42.71 63.22L42.71 65.97L27.52 65.97L27.52 63.22ZM18.41 52.21L42.71 52.21L42.71 54.96L18.41 54.96L18.41 52.21ZM33.6 41.2L42.71 41.2L42.71 43.95L33.6 43.95L33.6 41.2ZM45.3 60.87C45 60.6 44.64 60.46 44.23 60.46L4.73 60.46C4.32 60.46 3.96 60.6 3.66 60.87C3.36 61.14 3.21 61.47 3.21 61.84L3.21 67.34C3.21 67.72 3.36 68.04 3.66 68.31C3.96 68.58 4.32 68.72 4.73 68.72L44.23 68.72C44.64 68.72 45 68.58 45.3 68.31C45.6 68.04 45.75 67.72 45.75 67.34L45.75 61.84C45.75 61.47 45.6 61.14 45.3 60.87ZM45.3 49.86C45 49.59 44.64 49.46 44.23 49.46L4.73 49.46C4.32 49.46 3.96 49.59 3.66 49.86C3.36 50.14 3.21 50.46 3.21 50.83L3.21 56.34C3.21 56.71 3.36 57.03 3.66 57.3C3.96 57.58 4.32 57.71 4.73 57.71L44.23 57.71C44.64 57.71 45 57.58 45.3 57.3C45.6 57.03 45.75 56.71 45.75 56.34L45.75 50.83C45.75 50.46 45.6 50.14 45.3 49.86ZM45.3 38.85C45 38.58 44.64 38.45 44.23 38.45L4.73 38.45C4.32 38.45 3.96 38.58 3.66 38.85C3.36 39.13 3.21 39.45 3.21 39.82L3.21 45.33C3.21 45.7 3.36 46.02 3.66 46.29C3.96 46.57 4.32 46.7 4.73 46.7L44.23 46.7C44.64 46.7 45 46.57 45.3 46.29C45.6 46.02 45.75 45.7 45.75 45.33L45.75 39.82C45.75 39.45 45.6 39.13 45.3 38.85Z" />
	<path id="mkteam" class="shp0" d="M24.75 101.37C24.59 101.54 24.41 101.63 24.2 101.63C23.99 101.63 23.81 101.54 23.65 101.37L12.49 89.17C12.33 88.99 12.25 88.79 12.25 88.57C12.25 88.34 12.33 88.14 12.49 87.97L13.69 86.66C13.85 86.48 14.03 86.39 14.24 86.39C14.44 86.39 14.63 86.48 14.79 86.66L24.2 96.94L33.61 86.66C33.77 86.48 33.96 86.39 34.17 86.39C34.37 86.39 34.56 86.48 34.72 86.66L35.91 87.97C36.07 88.14 36.15 88.34 36.15 88.57C36.15 88.79 36.07 88.99 35.91 89.17L24.75 101.37ZM24.75 92.37C24.59 92.54 24.41 92.63 24.2 92.63C23.99 92.63 23.81 92.54 23.65 92.37L12.49 80.17C12.33 79.99 12.25 79.79 12.25 79.57C12.25 79.34 12.33 79.14 12.49 78.97L13.69 77.66C13.85 77.48 14.03 77.39 14.24 77.39C14.44 77.39 14.63 77.48 14.79 77.66L24.2 87.94L33.61 77.66C33.77 77.48 33.96 77.39 34.17 77.39C34.37 77.39 34.56 77.48 34.72 77.66L35.91 78.97C36.07 79.14 36.15 79.34 36.15 79.57C36.15 79.79 36.07 79.99 35.91 80.17L24.75 92.37ZM13.69 95.66C13.85 95.48 14.03 95.39 14.24 95.39C14.44 95.39 14.63 95.48 14.79 95.66L24.2 105.94L33.61 95.66C33.77 95.48 33.96 95.39 34.17 95.39C34.37 95.39 34.56 95.48 34.72 95.66L35.91 96.97C36.07 97.14 36.15 97.34 36.15 97.57C36.15 97.79 36.07 97.99 35.91 98.17L24.75 110.37C24.59 110.54 24.41 110.63 24.2 110.63C23.99 110.63 23.81 110.54 23.65 110.37L12.49 98.17C12.33 97.99 12.25 97.79 12.25 97.57C12.25 97.34 12.33 97.14 12.49 96.97L13.69 95.66Z" />
	<path id="mksocial" class="shp0" d="M33.69 140.93C30.64 142.72 27.33 143.62 23.76 143.62C20.2 143.62 16.89 142.72 13.83 140.93C10.78 139.14 8.24 136.73 6.21 133.7C8.53 130.22 11.43 127.62 14.92 125.89C13.99 127.43 13.52 129.09 13.52 130.87C13.52 133.6 14.53 135.94 16.53 137.87C18.53 139.81 20.94 140.78 23.76 140.78C26.58 140.78 28.99 139.81 30.99 137.87C33 135.94 34 133.6 34 130.87C34 129.09 33.54 127.43 32.61 125.89C36.09 127.62 39 130.22 41.31 133.7C39.29 136.73 36.75 139.14 33.69 140.93ZM23.76 126.27C22.45 126.27 21.33 126.72 20.4 127.62C19.47 128.52 19.01 129.6 19.01 130.87C19.01 131.17 18.9 131.42 18.69 131.62C18.48 131.83 18.22 131.93 17.91 131.93C17.61 131.93 17.35 131.83 17.13 131.62C16.92 131.42 16.81 131.17 16.81 130.87C16.81 129.03 17.5 127.45 18.86 126.13C20.22 124.81 21.86 124.14 23.76 124.14C24.07 124.14 24.33 124.25 24.54 124.45C24.75 124.66 24.86 124.91 24.86 125.21C24.86 125.5 24.75 125.75 24.54 125.96C24.33 126.17 24.07 126.27 23.76 126.27L23.76 126.27ZM43.78 132.18C41.65 128.8 38.78 126.08 35.18 124.03C31.57 121.98 27.77 120.96 23.76 120.96C19.75 120.96 15.95 121.98 12.35 124.03C8.74 126.08 5.88 128.8 3.74 132.18C3.44 132.69 3.29 133.2 3.29 133.7C3.29 134.21 3.44 134.71 3.74 135.23C5.88 138.61 8.74 141.32 12.35 143.37C15.95 145.42 19.75 146.45 23.76 146.45C27.77 146.45 31.57 145.43 35.18 143.38C38.78 141.34 41.65 138.62 43.78 135.23C44.09 134.71 44.24 134.21 44.24 133.7C44.24 133.2 44.09 132.69 43.78 132.18L43.78 132.18Z" />
</svg>